# Blender v2.79 (sub 0) OBJ File: ''
# www.blender.org
mtllib twistcube.mtl
o Cube
v 1.000000 -1.000000 -1.000000
v 1.000000 -1.000000 1.000000
v -1.000000 -1.000000 1.000000
v -1.000000 -1.000000 -1.000000
v 1.000000 1.000000 -0.999999
v 0.999999 1.000000 1.000001
v -1.000000 1.000000 1.000000
v -1.000000 1.000000 -1.000000
v 1.000000 -0.818182 -1.000000
v 1.000000 -0.636364 -1.000000
v 1.000000 -0.454545 -1.000000
v 1.000000 -0.272727 -1.000000
v 1.000000 -0.090909 -1.000000
v 1.000000 0.090909 -1.000000
v 1.000000 0.272727 -1.000000
v 1.000000 0.454545 -1.000000
v 1.000000 0.636364 -1.000000
v 1.000000 0.818182 -1.000000
v 1.000000 -0.818182 1.000000
v 1.000000 -0.636364 1.000000
v 1.000000 -0.454545 1.000000
v 1.000000 -0.272727 1.000000
v 1.000000 -0.090909 1.000000
v 1.000000 0.090909 1.000000
v 1.000000 0.272727 1.000000
v 1.000000 0.454545 1.000000
v 0.999999 0.636364 1.000000
v 0.999999 0.818182 1.000000
v -1.000000 -0.818182 1.000000
v -1.000000 -0.636364 1.000000
v -1.000000 -0.454545 1.000000
v -1.000000 -0.272727 1.000000
v -1.000000 -0.090909 1.000000
v -1.000000 0.090909 1.000000
v -1.000000 0.272727 1.000000
v -1.000000 0.454545 1.000000
v -1.000000 0.636364 1.000000
v -1.000000 0.818182 1.000000
v -1.000000 -0.818182 -1.000000
v -1.000000 -0.636364 -1.000000
v -1.000000 -0.454545 -1.000000
v -1.000000 -0.272727 -1.000000
v -1.000000 -0.090909 -1.000000
v -1.000000 0.090909 -1.000000
v -1.000000 0.272727 -1.000000
v -1.000000 0.454545 -1.000000
v -1.000000 0.636364 -1.000000
v -1.000000 0.818182 -1.000000
vn 0.0000 -1.0000 0.0000
vn 0.0000 1.0000 0.0000
vn 1.0000 0.0000 0.0000
vn -0.0000 -0.0000 1.0000
vn -1.0000 -0.0000 -0.0000
vn 0.0000 0.0000 -1.0000
usemtl Material
s off
f 1//1 2//1 3//1 4//1
f 5//2 8//2 7//2 6//2
f 18//3 5//3 6//3 28//3
f 28//4 6//4 7//4 38//4
f 38//5 7//5 8//5 48//5
f 9//6 1//6 4//6 39//6
f 5//6 18//6 48//6 8//6
f 18//6 17//6 47//6 48//6
f 17//6 16//6 46//6 47//6
f 16//6 15//6 45//6 46//6
f 15//6 14//6 44//6 45//6
f 14//6 13//6 43//6 44//6
f 13//6 12//6 42//6 43//6
f 12//6 11//6 41//6 42//6
f 11//6 10//6 40//6 41//6
f 10//6 9//6 39//6 40//6
f 3//5 29//5 39//5 4//5
f 29//5 30//5 40//5 39//5
f 30//5 31//5 41//5 40//5
f 31//5 32//5 42//5 41//5
f 32//5 33//5 43//5 42//5
f 33//5 34//5 44//5 43//5
f 34//5 35//5 45//5 44//5
f 35//5 36//5 46//5 45//5
f 36//5 37//5 47//5 46//5
f 37//5 38//5 48//5 47//5
f 2//4 19//4 29//4 3//4
f 19//4 20//4 30//4 29//4
f 20//4 21//4 31//4 30//4
f 21//4 22//4 32//4 31//4
f 22//4 23//4 33//4 32//4
f 23//4 24//4 34//4 33//4
f 24//4 25//4 35//4 34//4
f 25//4 26//4 36//4 35//4
f 26//4 27//4 37//4 36//4
f 27//4 28//4 38//4 37//4
f 1//3 9//3 19//3 2//3
f 9//3 10//3 20//3 19//3
f 10//3 11//3 21//3 20//3
f 11//3 12//3 22//3 21//3
f 12//3 13//3 23//3 22//3
f 13//3 14//3 24//3 23//3
f 14//3 15//3 25//3 24//3
f 15//3 16//3 26//3 25//3
f 16//3 17//3 27//3 26//3
f 17//3 18//3 28//3 27//3
